<?xml version="1.0" encoding="UTF-8"?>
<svg version="1.1" xmlns="http://www.w3.org/2000/svg" width="1080" height="1080">
<path d="M0 0 C3.61438842 0.01138294 7.22848189 0.00461936 10.84286022 -0.0068779 C31.59573004 -0.06291437 52.20435847 0.56240454 72.71801758 4.01074219 C74.2569165 4.26561401 74.2569165 4.26561401 75.8269043 4.52563477 C98.4595842 8.40773225 120.4698961 14.57402438 142.40551758 21.26074219 C143.38359375 21.55561523 144.36166992 21.85048828 145.36938477 22.15429688 C195.16940092 37.31712464 241.63935506 64.30256507 282.40551758 96.26074219 C283.36071289 97.00066406 284.3159082 97.74058594 285.30004883 98.50292969 C290.6071038 102.664998 295.61793247 107.09252888 300.56958008 111.67089844 C302.04629391 113.01946768 303.52723579 114.36447293 305.04931641 115.66162109 C311.35452785 121.03854452 317.19490594 126.86402626 323.05029297 132.72021484 C324.8306201 134.4983599 326.61880135 136.2683378 328.4074707 138.03808594 C335.20711147 144.80475224 341.46177198 151.72151389 347.40551758 159.26074219 C348.79740885 160.93070241 350.19281527 162.5977443 351.59301758 164.26074219 C413.09906496 239.81315333 446.96435971 335.94271657 446.38989258 475.88330078 C446.08574421 478.67916465 445.74985469 481.46955301 445.40551758 484.26074219 C445.27661133 485.36385742 445.14770508 486.46697266 445.01489258 487.60351562 C439.61060553 533.1521479 427.26016971 577.45120775 408.40551758 619.26074219 C407.93774902 620.2994043 407.46998047 621.33806641 406.98803711 622.40820312 C391.71843304 655.96673565 372.11572585 687.35778207 348.53051758 715.70214844 C347.11716116 717.40389191 345.72109965 719.12015333 344.34301758 720.85058594 C334.86497102 732.71556701 324.23634396 743.51109932 313.53051758 754.26074219 C312.74628418 755.04964844 311.96205078 755.83855469 311.15405273 756.65136719 C306.39883638 761.39347822 301.50530627 765.89350505 296.40551758 770.26074219 C295.31074183 771.22181458 294.21694317 772.18400148 293.12426758 773.14746094 C285.19987284 780.06971026 277.00356806 786.50907392 268.51049805 792.71777344 C266.37456399 794.28343144 264.25113387 795.8650504 262.12817383 797.44824219 C244.20049391 810.72192841 225.13040512 821.88515589 205.40551758 832.26074219 C204.69621094 832.63537598 203.9869043 833.01000977 203.25610352 833.39599609 C126.60833104 873.60682897 39.01878813 887.96954402 -46.59448242 877.26074219 C-47.77445801 877.11620605 -48.95443359 876.97166992 -50.17016602 876.82275391 C-121.48004445 867.83561919 -191.82915242 840.1642522 -249.59448242 797.26074219 C-250.66520996 796.46603516 -250.66520996 796.46603516 -251.75756836 795.65527344 C-264.07534956 786.46469145 -275.84821986 776.76646992 -287.21557617 766.42089844 C-288.78029749 765.00005954 -290.35561771 763.59079116 -291.94213867 762.19433594 C-301.35758599 753.88118489 -310.61171648 745.07636269 -318.72338867 735.46777344 C-320.24873275 733.668568 -321.79905873 731.90476921 -323.37182617 730.14746094 C-377.86485678 668.91477023 -413.77833188 590.68578771 -428.59448242 500.26074219 C-428.7151709 499.49568359 -428.83585937 498.730625 -428.96020508 497.94238281 C-432.09094822 477.96479036 -433.00939918 457.70478976 -432.96948242 437.51074219 C-432.9689386 436.45724579 -432.96839478 435.40374939 -432.96783447 434.31832886 C-432.92180687 414.72769179 -431.5480158 395.61783145 -428.59448242 376.26074219 C-428.43465881 375.19394226 -428.43465881 375.19394226 -428.27160645 374.10559082 C-419.87320257 318.24286182 -402.02095646 262.3799541 -371.86157227 214.28271484 C-370.48162597 212.08065025 -369.12612237 209.86442976 -367.77026367 207.64746094 C-352.44101246 182.78135742 -334.44435282 159.73359109 -314.51245117 138.40136719 C-312.61569134 136.36997435 -310.74325817 134.32096526 -308.89526367 132.24511719 C-304.76915618 127.61983283 -300.65621981 123.24873765 -295.91088867 119.26074219 C-293.41227147 117.10342008 -291.01094721 114.86185188 -288.60668945 112.60058594 C-272.63883368 97.59413438 -255.11147258 83.99548825 -236.59448242 72.26074219 C-235.71493896 71.6997583 -235.71493896 71.6997583 -234.81762695 71.12744141 C-230.10454393 68.12579288 -225.35686096 65.18339197 -220.59448242 62.26074219 C-219.94946777 61.86129395 -219.30445313 61.4618457 -218.63989258 61.05029297 C-190.84174948 43.90213343 -160.82377086 31.13598844 -129.90698242 20.82324219 C-129.17183411 20.57766571 -128.43668579 20.33208923 -127.67926025 20.07907104 C-111.77529897 14.7959654 -95.80708624 10.255896 -79.34448242 7.07324219 C-78.11213867 6.82638672 -76.87979492 6.57953125 -75.61010742 6.32519531 C-67.30322936 4.68912427 -58.99962033 3.28339079 -50.59448242 2.26074219 C-49.85966644 2.17011505 -49.12485046 2.07948792 -48.36776733 1.9861145 C-32.26811803 0.07155382 -16.18694046 -0.0513791 0 0 Z M-60.59448242 43.26074219 C-62.48094482 43.59017822 -62.48094482 43.59017822 -64.40551758 43.92626953 C-81.76027143 46.99962048 -98.76097839 51.0434558 -115.59448242 56.26074219 C-116.51116699 56.54079102 -117.42785156 56.82083984 -118.37231445 57.109375 C-151.07533202 67.26646482 -184.17688245 83.23910486 -212.59448242 102.26074219 C-213.59680908 102.92952393 -213.59680908 102.92952393 -214.61938477 103.61181641 C-227.43897764 112.20735193 -239.75887185 121.34441982 -251.59448242 131.26074219 C-252.11204102 131.69193359 -252.62959961 132.123125 -253.1628418 132.56738281 C-270.19962266 146.79523206 -286.23547935 161.90609907 -300.15698242 179.23339844 C-301.97223377 181.48791733 -303.80407576 183.72119022 -305.65698242 185.94433594 C-317.24655717 199.90917753 -327.18613189 214.76006879 -336.59448242 230.26074219 C-337.01616699 230.95312988 -337.43785156 231.64551758 -337.87231445 232.35888672 C-368.32632701 282.56934849 -387.66837022 340.44285738 -392.33251953 399.04467773 C-392.48523243 400.91950256 -392.6489705 402.79360991 -392.84031677 404.66488647 C-393.51580361 411.42639466 -393.75495555 418.10836224 -393.76245117 424.90136719 C-393.76577957 425.98544861 -393.76910797 427.06953003 -393.77253723 428.1864624 C-393.77757059 430.47228577 -393.77994668 432.7581164 -393.77978516 435.04394531 C-393.78195032 438.46009187 -393.8000861 441.87590345 -393.8190918 445.29199219 C-393.87152925 465.169565 -392.46696354 484.70152875 -389.28198242 504.32324219 C-389.17432556 504.99597168 -389.0666687 505.66870117 -388.95574951 506.36181641 C-378.97572971 568.51152906 -354.19324936 627.72417813 -316.59448242 678.26074219 C-316.16474121 678.84065918 -315.735 679.42057617 -315.29223633 680.01806641 C-302.58962253 697.07028922 -288.33441276 712.5881952 -273.34448242 727.63574219 C-272.50473877 728.48015869 -271.66499512 729.3245752 -270.79980469 730.19458008 C-214.66515264 786.18502692 -138.48070225 823.19330116 -60.96948242 837.57324219 C-60.17904541 837.72051758 -59.3886084 837.86779297 -58.57421875 838.01953125 C-43.40645601 840.66170756 -28.01729332 841.75705333 -12.65698242 842.51074219 C-11.30692612 842.57761734 -11.30692612 842.57761734 -9.92959595 842.64584351 C15.29878143 843.83816537 40.51133226 842.72725738 65.40551758 838.26074219 C66.86948975 838.00768311 66.86948975 838.00768311 68.36303711 837.74951172 C135.63290115 826.02357212 198.79654496 798.66938597 252.67749023 756.60351562 C254.41166385 755.25596619 256.16223774 753.93257886 257.91723633 752.61230469 C266.62378366 746.0012603 274.53549239 738.68930678 282.4284668 731.13623047 C284.97452365 728.72096636 287.56286553 726.35404369 290.15283203 723.98608398 C294.95460885 719.58730767 299.60704384 715.20510844 303.78442383 710.19433594 C305.67326142 707.94138508 307.66244354 705.796949 309.65551758 703.63574219 C314.71839653 698.01603221 319.37085117 692.11928335 323.97290039 686.12158203 C325.37443709 684.30111293 326.79154452 682.49366202 328.21020508 680.68652344 C341.62747262 663.40202023 353.2561183 644.63261222 363.40551758 625.26074219 C363.74454102 624.61975586 364.08356445 623.97876953 364.43286133 623.31835938 C383.05966119 587.89482463 395.9378119 549.74635708 402.40551758 510.26074219 C402.58211914 509.20306641 402.7587207 508.14539063 402.94067383 507.05566406 C405.6810124 490.35492932 408.10908001 473.23695767 407.40551758 456.26074219 C406.42352532 455.04646021 406.42352532 455.04646021 404.55871582 455.23419189 C403.74439087 455.28065857 402.93006592 455.32712524 402.09106445 455.375 C401.15704803 455.4255806 400.22303162 455.47616119 399.26071167 455.52827454 C397.70817184 455.6201429 397.70817184 455.6201429 396.12426758 455.71386719 C394.49643845 455.80349983 394.49643845 455.80349983 392.83572388 455.89494324 C390.45548804 456.02628195 388.0753757 456.1598726 385.69537354 456.29537964 C379.84084591 456.62806933 373.98554597 456.9464527 368.13014603 457.26334953 C366.75775911 457.33762425 365.38538118 457.41206515 364.01301193 457.48666573 C350.0166655 458.24644576 336.01605416 458.8942504 322.01309204 459.5201416 C295.30341733 460.71459729 268.60524111 462.072842 241.90820312 463.52172852 C222.17971251 464.59238498 202.45095778 465.60849638 182.71466064 466.52664185 C152.70335624 467.92451104 122.71581818 469.65896993 92.72631836 471.4597168 C75.85047058 472.47274401 58.97420793 473.46922857 42.09301758 474.38964844 C40.94486981 474.45286883 40.94486981 474.45286883 39.77352715 474.51736641 C31.0077355 474.99873594 22.24525385 475.42190812 13.46801758 475.63574219 C12.70985245 475.66228378 11.95168732 475.68882538 11.17054749 475.71617126 C6.09257375 475.72946025 3.28236617 474.49236847 -0.59448242 471.26074219 C-4.47875323 467.26376182 -5.10160642 464.69043607 -5.14137268 459.16323853 C-5.15180385 458.45324601 -5.16223501 457.74325349 -5.17298228 457.01174605 C-5.20310367 454.61226408 -5.20453454 452.21362376 -5.20605469 449.81396484 C-5.22144722 448.06146696 -5.23846313 446.30898273 -5.25694847 444.55651474 C-5.30268568 439.67890888 -5.32217228 434.80149154 -5.33683848 429.92370558 C-5.35248654 425.6914831 -5.38233279 421.45940319 -5.41178924 417.22725785 C-5.516933 401.92194723 -5.55844165 386.61660788 -5.59011519 371.31099725 C-5.59602292 368.53753532 -5.60258135 365.76407507 -5.60911983 362.99061458 C-5.69819123 324.99845355 -5.69082906 287.00684725 -5.59615135 249.01470566 C-5.58812999 245.77005782 -5.58017322 242.52540983 -5.57226562 239.28076172 C-5.57028764 238.47593095 -5.56830966 237.67110017 -5.56627174 236.84188059 C-5.53422975 223.55780237 -5.52744763 210.27382185 -5.5297293 196.9897099 C-5.53168043 183.14500379 -5.5112232 169.3004724 -5.46871668 155.45583022 C-5.44565571 147.76129277 -5.43224972 140.06701752 -5.44462395 132.37244797 C-5.45500596 125.89664887 -5.44528392 119.42128402 -5.40883409 112.94557182 C-5.3909308 109.6547185 -5.38591872 106.36474048 -5.40054893 103.07384872 C-5.41485619 99.50962458 -5.39243741 95.94746058 -5.36070251 92.38339233 C-5.38005849 90.83233593 -5.38005849 90.83233593 -5.39980549 89.24994504 C-5.29876999 83.22211629 -4.38210266 79.89461593 -0.12418562 75.53523886 C6.17565334 70.28642732 15.47139181 71.09027356 23.21801758 70.88574219 C32.29148454 70.60595205 41.33989159 70.16484557 50.39770508 69.56542969 C51.86526497 69.46862915 51.86526497 69.46862915 53.36247253 69.36987305 C55.39935448 69.23533282 57.43623494 69.10077025 59.47311401 68.96618652 C80.11289408 67.6070657 100.70368278 66.82291645 121.38671875 66.55175781 C122.3599559 66.53791046 123.33319305 66.52406311 124.33592224 66.50979614 C126.14784595 66.48516532 127.95983665 66.46490105 129.77186584 66.44992065 C133.77523704 66.39824161 137.49825965 66.2509649 141.40551758 65.26074219 C141.40551758 64.27074219 141.40551758 63.28074219 141.40551758 62.26074219 C134.28379923 59.22509505 127.13330145 56.87607311 119.65551758 54.88574219 C117.97800415 54.43847778 117.97800415 54.43847778 116.26660156 53.98217773 C98.17995297 49.27418078 79.81701262 45.80206552 61.34301758 43.01074219 C59.84943726 42.78414917 59.84943726 42.78414917 58.32568359 42.55297852 C55.02295791 42.07925207 51.71821755 41.65917311 48.40551758 41.26074219 C47.33042435 41.1304361 47.33042435 41.1304361 46.23361206 40.99749756 C30.85783696 39.18801855 15.56400119 38.85994288 0.09301758 38.88574219 C-1.13882263 38.88628601 -2.37066284 38.88682983 -3.63983154 38.88739014 C-22.96504396 38.92653345 -41.55738388 39.79588026 -60.59448242 43.26074219 Z M177.78051758 85.19824219 C173.43721984 89.20962853 170.26661412 89.50801224 164.44848633 89.83886719 C162.7255611 89.94580831 161.00266198 90.05317052 159.27978516 90.16088867 C157.89528671 90.24558914 157.89528671 90.24558914 156.4828186 90.33200073 C132.6287172 91.80743685 108.85864561 93.98191994 85.07554626 96.31797791 C78.74965105 96.93886559 72.4225449 97.5427525 66.09306335 98.1259613 C62.2599368 98.47922438 58.42734997 98.83813371 54.59481812 99.19778442 C52.82048574 99.36303011 51.04593057 99.52590305 49.27114868 99.68624878 C46.84647614 99.90592792 44.42285642 100.13492523 41.99926758 100.36621094 C41.29666306 100.42750183 40.59405853 100.48879272 39.87016296 100.55194092 C35.86753047 100.94504308 33.25258716 101.72191436 29.40551758 103.26074219 C29.40551758 122.73074219 29.40551758 142.20074219 29.40551758 162.26074219 C44.55312061 161.36970671 59.6985669 160.45279837 74.84301758 159.51074219 C75.86360197 159.44732069 75.86360197 159.44732069 76.90480423 159.38261795 C101.51627721 157.85245265 126.11967925 156.21504544 150.72139359 154.53591156 C170.73742825 153.16986246 190.75391057 151.8394587 210.78051758 150.63574219 C217.35690222 150.23772128 223.93319121 149.8381202 230.50939941 149.43719482 C232.50913718 149.31535622 234.50889429 149.1938347 236.50866699 149.0725708 C242.81352816 148.68940311 249.11761083 148.29604876 255.42095947 147.88873291 C257.3933577 147.76284373 259.36597562 147.64034571 261.33880615 147.52142334 C264.02836944 147.35881798 266.71690597 147.18439063 269.40551758 147.00683594 C270.20696198 146.96107925 271.00840637 146.91532257 271.83413696 146.86817932 C273.69777634 146.73869482 275.55412202 146.51024667 277.40551758 146.26074219 C277.73551758 145.60074219 278.06551758 144.94074219 278.40551758 144.26074219 C277.84864258 143.83664063 277.29176758 143.41253906 276.71801758 142.97558594 C275.95489258 142.3890625 275.19176758 141.80253906 274.40551758 141.19824219 C273.29176758 140.34552734 273.29176758 140.34552734 272.15551758 139.47558594 C269.91301937 137.66948298 267.76818613 135.81609472 265.62036133 133.90136719 C261.5836473 130.34881322 257.3513619 127.1822454 252.96801758 124.07324219 C251.79577637 123.23696289 251.79577637 123.23696289 250.59985352 122.38378906 C248.98494785 121.23260782 247.36890038 120.08302661 245.75170898 118.93505859 C243.56606476 117.37531374 241.39585664 115.7966557 239.22973633 114.20996094 C224.82428335 103.73122531 209.46934742 94.85764991 193.78051758 86.44824219 C192.99306152 86.02140137 192.20560547 85.59456055 191.39428711 85.15478516 C190.66322754 84.77080566 189.93216797 84.38682617 189.17895508 83.99121094 C188.54393066 83.65500732 187.90890625 83.31880371 187.25463867 82.97241211 C182.99987449 81.33488404 180.8551323 82.32002356 177.78051758 85.19824219 Z M296.43676758 172.63574219 C290.70137516 174.62862732 284.90358501 175.43409378 278.90551758 176.26074219 C277.70975098 176.42952881 276.51398438 176.59831543 275.28198242 176.7722168 C272.82091959 177.11564737 270.35916014 177.454123 267.89672852 177.78759766 C265.74282944 178.0795037 263.58965031 178.3768536 261.43774414 178.68310547 C242.06028654 181.43523646 222.55000661 182.47366357 203.03153992 183.70275879 C194.51641772 184.24330924 186.00921064 184.86979377 177.5015564 185.51583862 C157.17302117 187.05536012 136.82847172 188.320987 116.48075962 189.57495975 C113.0533127 189.78626357 109.62588906 189.99794162 106.19848633 190.20996094 C105.17254395 190.27342492 105.17254395 190.27342492 104.12587547 190.33817101 C79.21271665 191.8817521 54.31004921 193.58447564 29.40551758 195.26074219 C29.40551758 215.39074219 29.40551758 235.52074219 29.40551758 256.26074219 C44.0171006 256.26074219 58.06644431 256.25571907 72.51489258 254.94433594 C74.13138492 254.80617282 75.74798657 254.66928377 77.36468506 254.53355408 C79.87257416 254.32286082 82.380378 254.11145957 84.88788223 253.89622974 C93.06232911 253.19507367 101.24231135 252.57842858 109.42449951 251.97538567 C112.68239252 251.73515731 115.94008927 251.49231891 119.19779968 251.24962902 C121.67025705 251.06550079 124.1427431 250.88176178 126.61523438 250.6980896 C151.71597294 248.83239184 176.81513782 246.94905645 201.90551758 244.94824219 C202.92891235 244.86720245 203.95230713 244.78616272 205.00671387 244.70266724 C207.83773807 244.47802923 210.66854008 244.25080391 213.49926758 244.02246094 C214.29753967 243.9591861 215.09581177 243.89591125 215.91827393 243.83071899 C219.53517377 243.53531327 223.13275502 243.18664128 226.73266602 242.72631836 C230.54318329 242.24329148 234.32227858 242.03821054 238.15551758 241.88574219 C247.91508895 241.42869046 257.63819742 240.59928748 267.37017822 239.75643921 C278.11312998 238.82908875 288.85992047 237.99970974 299.61645508 237.24511719 C300.84561646 237.15837234 302.07477783 237.0716275 303.34118652 236.98225403 C309.4919902 236.54897044 315.64318186 236.12296549 321.79516602 235.70678711 C324.08457194 235.54664251 326.37396075 235.38625291 328.66333008 235.22558594 C329.7005722 235.1579303 330.73781433 235.09027466 331.80648804 235.02056885 C338.13754056 234.56857726 344.21562972 233.66837674 350.40551758 232.26074219 C342.78211603 218.32924428 333.4831121 205.51151777 323.40551758 193.26074219 C322.13462119 191.6357915 320.86378964 190.0107901 319.59301758 188.38574219 C316.37480446 184.38368707 313.063978 180.47614905 309.65551758 176.63574219 C309.19556396 176.10223145 308.73561035 175.5687207 308.26171875 175.01904297 C306.78981048 173.3382732 306.78981048 173.3382732 304.40551758 171.26074219 C300.90108447 171.26074219 299.52077861 171.44800105 296.43676758 172.63574219 Z M353.16333008 258.24902344 C351.94363525 258.45930176 350.72394043 258.66958008 349.46728516 258.88623047 C347.51858521 259.22630127 347.51858521 259.22630127 345.53051758 259.57324219 C335.29014307 261.33168565 325.05089081 262.9464436 314.73217773 264.18383789 C309.93656457 264.76721499 305.17516451 265.45721476 300.40956116 266.25215149 C286.78440356 268.5043207 273.07506744 269.97839925 259.34980011 271.47265244 C257.25144836 271.70141127 255.15326118 271.93162809 253.05511475 272.16226196 C202.38418011 277.72957098 151.65927135 282.03208576 100.8203125 285.75195312 C77.00793621 287.4962341 53.20740973 289.37810665 29.40551758 291.26074219 C29.40551758 309.08074219 29.40551758 326.90074219 29.40551758 345.26074219 C37.55168281 345.28168507 37.55168281 345.28168507 45.60986328 344.84936523 C47.28512589 344.71358315 47.28512589 344.71358315 48.99423218 344.57505798 C50.17796417 344.47520096 51.36169617 344.37534393 52.58129883 344.27246094 C54.51790018 344.11467231 56.45450203 343.95688963 58.39112473 343.79936314 C60.43443873 343.63254398 62.47759674 343.46392084 64.52072144 343.2947998 C71.60385073 342.7089698 78.6881564 342.13771182 85.77270508 341.56933594 C86.83476449 341.48401045 86.83476449 341.48401045 87.91827965 341.39696121 C103.23481923 340.16930449 118.56153738 339.12321046 133.89697266 338.16186523 C134.76260834 338.10691391 135.62824402 338.05196259 136.52011108 337.99534607 C138.09558383 337.89574878 139.67119569 337.79831126 141.24697876 337.70375061 C144.73683939 337.48401045 148.1915344 337.18506078 151.66015625 336.73779297 C154.38867633 336.39025837 157.00052609 336.12337308 159.74145508 336.04980469 C171.12220435 335.69692214 182.45757853 334.99281791 193.80891037 334.13549614 C221.39078642 332.06760957 249.0068433 330.57076526 276.62252605 329.04007053 C283.47282696 328.66023755 290.3229125 328.27658731 297.17298651 327.89268756 C337.2325174 325.64809271 337.2325174 325.64809271 355.88305664 324.63623047 C358.3580537 324.50128637 360.83304425 324.36622343 363.30803299 324.23112679 C365.46450311 324.11410069 367.62108108 323.99926227 369.77767944 323.8846283 C377.00457194 323.4907246 384.20365142 322.98277134 391.40551758 322.26074219 C389.17367037 314.26908232 386.3778529 306.52621745 383.38452148 298.79248047 C382.67959256 296.96950965 381.97930694 295.14474084 381.28198242 293.31884766 C376.47418287 280.76417755 371.67724428 268.61519813 364.40551758 257.26074219 C360.53173315 257.14733471 356.9772822 257.57935715 353.16333008 258.24902344 Z M382.50317383 355.88183594 C380.55428618 356.01342905 378.60539273 356.14493627 376.65649414 356.27636719 C375.14061707 356.37981445 375.14061707 356.37981445 373.59411621 356.48535156 C345.71878928 358.38369082 345.71878928 358.38369082 334.15551758 358.76074219 C324.13515985 359.10398598 314.15213017 359.82968664 304.15551758 360.57324219 C286.1204186 361.91170506 268.0749514 363.02562726 250.02097702 364.07198715 C246.36535539 364.2839014 242.7097818 364.4966419 239.05419922 364.70922852 C237.57666555 364.79512549 236.09913157 364.8810172 234.62159729 364.96690369 C233.88802065 365.00954786 233.15444401 365.05219204 232.39863777 365.09612846 C230.91158297 365.18255305 229.42452623 365.26894441 227.93746758 365.35530281 C185.02833836 367.84744081 142.14052518 370.53056902 99.27856445 373.74755859 C91.9414072 374.29722333 84.60318114 374.83189894 77.26489258 375.36621094 C73.5361447 375.63866211 69.80741857 375.91140822 66.07870483 376.18432617 C63.69757977 376.35836978 61.31641596 376.53188434 58.93521118 376.70483398 C55.6452164 376.94414256 52.35542616 377.1860953 49.06567383 377.42871094 C47.61804657 377.53314766 47.61804657 377.53314766 46.14117432 377.63969421 C37.17965753 377.58687267 37.17965753 377.58687267 29.40551758 380.26074219 C29.31160461 382.16317981 29.288081 384.06912677 29.29199219 385.97387695 C29.29206772 387.19506729 29.29214325 388.41625763 29.29222107 389.67445374 C29.29732847 391.01701904 29.30254447 392.35958394 29.30786133 393.70214844 C29.30972558 395.06835376 29.31114945 396.43455976 29.31214905 397.80076599 C29.31597364 401.40275914 29.32580341 405.00471219 29.33685303 408.60668945 C29.34706842 412.27977964 29.35164694 415.95287628 29.35668945 419.62597656 C29.36742574 426.83758342 29.38450144 434.04915719 29.40551758 441.26074219 C31.9146035 442.51528515 33.23646692 442.23403374 36.02148438 441.97143555 C36.98858841 441.88535538 37.95569244 441.79927521 38.95210266 441.71058655 C40.54359383 441.56332375 40.54359383 441.56332375 42.16723633 441.41308594 C55.51607792 440.26257063 68.86462481 439.59007433 82.24829102 438.9989624 C89.13060989 438.69431609 96.01224571 438.37513816 102.89379883 438.05371094 C103.58786457 438.02138618 104.28193031 437.98906143 104.99702835 437.95575714 C121.36975942 437.19076778 137.73154256 436.25022423 154.09228516 435.26293945 C156.06126397 435.14476388 158.03025782 435.02683853 159.99926758 434.90917969 C161.41383492 434.82448677 161.41383492 434.82448677 162.85697937 434.73808289 C170.72015766 434.27795894 178.58650448 433.92722483 186.4576416 433.63412476 C190.87714351 433.45970797 195.26311517 433.2016523 199.66552734 432.77148438 C206.4212622 432.12626329 213.18441277 431.876038 219.96411133 431.61230469 C221.3743882 431.55509819 222.78465098 431.49754323 224.19490051 431.43966675 C227.18754952 431.31703075 230.18024101 431.19552932 233.17297363 431.07495117 C256.01191288 430.15229001 278.83947522 429.15081736 301.65551758 427.76074219 C324.15116528 426.39062796 346.65533495 425.33433874 369.1707468 424.35409355 C371.24311797 424.26377202 373.31546248 424.17285915 375.38780212 424.08181763 C377.91536862 423.97116612 380.44300257 423.86203856 382.97071838 423.75485229 C391.45971903 423.38408632 399.92978384 422.85678613 408.40551758 422.26074219 C408.65981643 412.84333068 407.7521349 403.65787801 406.65551758 394.32324219 C406.52262833 393.16927948 406.52262833 393.16927948 406.38705444 391.99200439 C405.65357088 372.32190552 405.65357088 372.32190552 399.40551758 355.26074219 C393.75184199 355.06614358 388.14151731 355.48793423 382.50317383 355.88183594 Z " fill="#FEFEFE" transform="translate(532.594482421875,67.7392578125)"/>
<path d="M0 0 C4.55197682 2.2346068 6.79539592 4.48805598 9 9 C9.47446913 11.80654155 9.80794465 14.46409647 10.02734375 17.2890625 C10.10085556 18.09673065 10.17436737 18.9043988 10.25010681 19.73654175 C10.40714247 21.46690041 10.5590318 23.19773248 10.70623779 24.92895508 C11.09653962 29.47907711 11.5355478 34.02448603 11.97265625 38.5703125 C12.05882202 39.47263611 12.14498779 40.37495972 12.23376465 41.30462646 C15.65889371 76.71619768 24.08647983 111.13215879 38.88964844 143.56054688 C39.9503556 145.89093077 40.98081903 148.23273499 42.0078125 150.578125 C51.45832261 171.74098098 63.95628901 191.60919985 78 210 C78.88099533 211.17519168 79.7612383 212.35094786 80.640625 213.52734375 C94.78544042 232.3210775 110.79222196 250.76488712 128.71484375 266.05078125 C130.47300771 267.55048008 132.2115625 269.07319016 133.94140625 270.60546875 C166.8841453 299.63368542 205.65588007 320.55693824 247 335 C248.51574087 335.54525092 250.03137396 336.0908016 251.546875 336.63671875 C264.77292505 341.30685776 278.38075705 344.69065125 292 348 C292.77005371 348.18723633 293.54010742 348.37447266 294.33349609 348.56738281 C308.07218851 351.82261383 322.18670137 352.72891403 336.25 353.42578125 C337.69866038 353.50165642 339.14730946 353.57774772 340.59594727 353.65405273 C343.45013128 353.80402884 346.30396721 353.92855613 349.15991211 354.03930664 C350.47741455 354.10625732 351.79491699 354.17320801 353.15234375 354.2421875 C354.32788818 354.2922998 355.50343262 354.34241211 356.71459961 354.39404297 C361.26181101 355.23272757 364.58867607 357.24597862 367.49609375 360.859375 C369.97076059 365.82924533 370.73981842 369.63648333 369 375 C366.84489485 379.01295443 365.23999218 381.34383436 361 383 C357.11829015 383.43621252 353.21615988 383.33177313 349.3125 383.3125 C348.15709717 383.30831055 347.00169434 383.30412109 345.8112793 383.29980469 C333.73212068 383.1454804 321.93317983 381.78958751 310 380 C309.0615625 379.86609863 308.123125 379.73219727 307.15625 379.59423828 C247.32122694 370.9278243 185.31006124 345.72803374 137 309 C135.9221683 308.19622113 134.8440384 307.39284199 133.765625 306.58984375 C122.59502921 298.20230305 111.97725867 289.23103694 102.22265625 279.22265625 C100.23976451 277.23976451 98.20973117 275.42520391 96.0625 273.625 C90.55481741 268.88839297 85.81305631 263.42167505 81 258 C80.48244141 257.42185547 79.96488281 256.84371094 79.43164062 256.24804688 C71.06716355 246.8851304 63.34467203 237.17985629 56 227 C55.4416748 226.23026855 54.88334961 225.46053711 54.30810547 224.66748047 C29.50526842 190.33946793 9.90978717 152.36552171 -3 112 C-3.30389648 111.06430176 -3.60779297 110.12860352 -3.92089844 109.16455078 C-13.23094916 80.18614852 -18.97293077 49.22012562 -19.4375 18.75 C-19.45989746 17.85079834 -19.48229492 16.95159668 -19.50537109 16.02514648 C-19.48525868 10.51699124 -18.66633298 7.36694948 -15 3 C-10.63453818 -0.85187808 -5.54054055 -0.79911643 0 0 Z " fill="#FEFEFE" transform="translate(183,501)"/>
</svg>
